<?xml version="1.0" standalone="no"?>
<!DOCTYPE svg PUBLIC "-//W3C//DTD SVG 20010904//EN"
 "http://www.w3.org/TR/2001/REC-SVG-20010904/DTD/svg10.dtd">
<svg version="1.0" xmlns="http://www.w3.org/2000/svg"
 width="1024.000000pt" height="1024.000000pt" viewBox="0 0 1024.000000 1024.000000"
 preserveAspectRatio="xMidYMid meet">

<g transform="translate(0.000000,1024.000000) scale(0.100000,-0.100000)"
fill="#000000" stroke="none">
<path d="M0 5120 l0 -5120 5120 0 5120 0 0 5120 0 5120 -5120 0 -5120 0 0
-5120z m3372 2410 c672 -46 1291 -231 1682 -504 l79 -55 46 34 c230 175 610
349 951 435 317 80 418 91 845 97 412 6 667 -7 698 -34 16 -15 17 -120 17
-1924 l0 -1908 -347 1 c-197 1 -405 -4 -478 -11 -393 -36 -854 -133 -1162
-246 -160 -59 -392 -178 -488 -250 -48 -36 -90 -65 -93 -65 -4 0 -42 26 -85
59 -261 195 -781 371 -1362 460 -273 42 -438 54 -780 55 l-330 1 -3 1875 c-1
1031 0 1890 3 1908 3 18 16 39 28 47 44 28 505 43 779 25z m4702 -373 c30 -14
61 -36 69 -49 12 -20 14 -282 15 -1953 0 -1062 -4 -1937 -9 -1946 -19 -37 -61
-42 -217 -30 -225 19 -744 25 -907 12 -388 -32 -870 -128 -1174 -233 -176 -61
-259 -107 -362 -204 -45 -42 -65 -54 -105 -61 -63 -10 -432 -10 -507 0 -54 8
-65 14 -134 77 -123 112 -296 187 -628 269 -297 74 -572 120 -885 147 -210 19
-692 15 -928 -7 -144 -13 -171 -8 -194 35 -8 14 -11 592 -11 1943 l0 1923 23
25 c38 40 107 67 180 69 l65 1 5 -1837 c5 -1747 6 -1838 23 -1855 16 -17 48
-18 420 -19 418 -1 547 -9 853 -54 576 -85 1084 -265 1287 -458 36 -35 39 -36
132 -40 129 -6 155 1 220 56 169 144 442 261 830 357 450 111 871 153 1411
139 l291 -7 21 28 22 28 0 1826 c0 1448 3 1830 13 1840 18 19 116 8 181 -22z"/>
<path d="M4980 6870 c-186 -24 -423 -115 -591 -226 -142 -94 -306 -300 -372
-469 -59 -150 -72 -233 -72 -455 0 -107 3 -209 7 -227 6 -27 2 -38 -28 -74
-68 -81 -79 -113 -79 -224 0 -124 17 -174 92 -262 34 -40 60 -82 68 -111 21
-68 74 -126 151 -162 76 -37 75 -34 44 -211 -29 -160 -47 -222 -93 -314 -22
-44 -46 -98 -54 -120 -14 -40 -14 -40 19 -71 25 -22 60 -37 133 -58 130 -35
240 -80 439 -176 210 -102 297 -151 463 -260 76 -50 154 -96 175 -102 81 -24
164 26 218 132 32 63 63 199 80 345 14 126 38 268 50 300 9 25 12 25 122 25
235 1 350 52 409 185 20 42 23 64 20 145 -1 52 -2 109 -2 125 0 17 1 71 1 120
1 82 4 95 33 142 19 32 42 57 61 65 39 16 93 64 112 99 8 16 14 56 14 94 0 59
-9 89 -70 248 -39 100 -76 193 -82 207 -6 14 -14 93 -19 175 -6 102 -16 180
-32 245 l-24 95 23 35 c68 99 70 201 6 326 -22 43 -48 101 -57 127 -47 126
-177 194 -416 216 -58 6 -145 22 -193 35 -138 40 -398 57 -556 36z m435 -171
c28 -5 70 -23 94 -40 42 -30 48 -31 110 -25 131 13 305 -26 359 -80 29 -29 33
-38 27 -65 -6 -27 -2 -36 33 -69 51 -49 67 -95 52 -149 -11 -41 -53 -81 -84
-81 -8 0 -23 -11 -31 -24 -15 -22 -14 -26 9 -60 58 -85 97 -282 79 -391 -10
-54 -8 -66 13 -120 158 -405 175 -451 169 -472 -7 -30 -51 -56 -120 -73 l-55
-13 0 -65 c0 -59 -3 -66 -31 -93 -17 -16 -37 -29 -45 -29 -7 0 -18 -9 -24 -21
-9 -17 -7 -23 13 -39 39 -31 52 -72 33 -108 -19 -36 -20 -70 -5 -108 5 -16 11
-58 11 -94 2 -79 -19 -121 -72 -147 -44 -22 -173 -21 -313 1 -53 9 -101 16
-106 16 -26 0 -68 -180 -101 -435 -34 -268 -72 -402 -111 -399 -9 1 -57 28
-105 61 -277 186 -596 345 -867 433 -82 26 -97 35 -92 48 59 143 93 287 130
556 22 158 21 161 -52 161 -104 0 -183 58 -183 134 0 25 -13 46 -61 97 -33 36
-67 82 -76 102 -20 47 -20 120 0 159 20 37 75 86 127 113 l39 20 -37 71 -37
72 -3 161 c-7 311 52 475 242 674 219 229 561 353 921 335 55 -3 123 -9 150
-14z"/>
</g>
</svg>
